<svg width="26" height="29" viewBox="0 0 26 29" fill="none" xmlns="http://www.w3.org/2000/svg">
<path d="M23.1111 2.88889H21.6667V0H18.7778V2.88889H7.22222V0H4.33333V2.88889H2.88889C1.28556 2.88889 0 4.18889 0 5.77778V26C0 27.5889 1.28556 28.8889 2.88889 28.8889H23.1111C24.7 28.8889 26 27.5889 26 26V5.77778C26 4.18889 24.7 2.88889 23.1111 2.88889ZM13 7.22222C15.3978 7.22222 17.3333 9.15778 17.3333 11.5556C17.3333 13.9533 15.3978 15.8889 13 15.8889C10.6022 15.8889 8.66667 13.9533 8.66667 11.5556C8.66667 9.15778 10.6022 7.22222 13 7.22222ZM21.6667 24.5556H4.33333V23.1111C4.33333 20.2222 10.1111 18.6333 13 18.6333C15.8889 18.6333 21.6667 20.2222 21.6667 23.1111V24.5556Z" fill="#A0A6AF"/>
</svg>
