<svg width="26" height="31" viewBox="0 0 26 31" fill="none" xmlns="http://www.w3.org/2000/svg">
<path d="M13 0C5.82706 0 0 5.82706 0 13C0 20.1729 5.82706 26 13 26H13.7647V30.5882C21.1976 27.0094 26 19.8824 26 13C26 5.82706 20.1729 0 13 0ZM14.5294 22.1765H11.4706V19.1176H14.5294V22.1765ZM14.5294 16.8235H11.4706C11.4706 11.8529 16.0588 12.2353 16.0588 9.17647C16.0588 7.49412 14.6824 6.11765 13 6.11765C11.3176 6.11765 9.94118 7.49412 9.94118 9.17647H6.88235C6.88235 5.79647 9.62 3.05882 13 3.05882C16.38 3.05882 19.1176 5.79647 19.1176 9.17647C19.1176 13 14.5294 13.3824 14.5294 16.8235Z" fill="#A0A6AF"/>
</svg>
