<svg width="32" height="20" viewBox="0 0 32 20" fill="none" xmlns="http://www.w3.org/2000/svg">
<path d="M21.4286 8.57143C23.8 8.57143 25.7 6.65714 25.7 4.28571C25.7 1.91429 23.8 0 21.4286 0C19.0571 0 17.1429 1.91429 17.1429 4.28571C17.1429 6.65714 19.0571 8.57143 21.4286 8.57143ZM10 8.57143C12.3714 8.57143 14.2714 6.65714 14.2714 4.28571C14.2714 1.91429 12.3714 0 10 0C7.62857 0 5.71429 1.91429 5.71429 4.28571C5.71429 6.65714 7.62857 8.57143 10 8.57143ZM10 11.4286C6.67143 11.4286 0 13.1 0 16.4286V20H20V16.4286C20 13.1 13.3286 11.4286 10 11.4286ZM21.4286 11.4286C21.0143 11.4286 20.5429 11.4571 20.0429 11.5C21.7 12.7 22.8571 14.3143 22.8571 16.4286V20H31.4286V16.4286C31.4286 13.1 24.7571 11.4286 21.4286 11.4286Z" fill="#A0A6AF"/>
</svg>
