<svg width="31" height="31" viewBox="0 0 31 31" fill="none" xmlns="http://www.w3.org/2000/svg">
<path d="M15.5 29C22.9558 29 29 22.9558 29 15.5C29 8.04416 22.9558 2 15.5 2C8.04416 2 2 8.04416 2 15.5C2 22.9558 8.04416 29 15.5 29Z" fill="#A0A6AF" stroke="#A0A6AF" stroke-width="2.25" stroke-miterlimit="10"/>
<path d="M15.5 20C18.6066 20 21.125 17.4816 21.125 14.375C21.125 11.2684 18.6066 8.75 15.5 8.75C12.3934 8.75 9.875 11.2684 9.875 14.375C9.875 17.4816 12.3934 20 15.5 20Z" fill="#A0A6AF" stroke="#E5E7E9" stroke-width="2.25" stroke-miterlimit="10"/>
<path d="M6.47168 25.537C7.3191 23.8709 8.61104 22.4717 10.2045 21.4945C11.7979 20.5173 13.6307 20 15.4999 20C17.3692 20 19.2019 20.5172 20.7954 21.4945C22.3888 22.4717 23.6807 23.8708 24.5282 25.5369" fill="#A0A6AF"/>
<path d="M6.47168 25.537C7.3191 23.8709 8.61104 22.4717 10.2045 21.4945C11.7979 20.5173 13.6307 20 15.4999 20C17.3692 20 19.2019 20.5172 20.7954 21.4945C22.3888 22.4717 23.6808 23.8708 24.5282 25.5369" stroke="#E5E7E9" stroke-width="2.25" stroke-linecap="round" stroke-linejoin="round"/>
</svg>
